<svg width="43" height="43" viewBox="0 0 43 43" fill="none" xmlns="http://www.w3.org/2000/svg">
<mask id="mask0_4050_326" style="mask-type:alpha" maskUnits="userSpaceOnUse" x="0" y="0" width="43" height="43">
<rect width="43" height="43" fill="#D9D9D9"/>
</mask>
<g mask="url(#mask0_4050_326)">
<path d="M7.16671 32.2502C6.18129 32.2502 5.33771 31.8993 4.63598 31.1976C3.93424 30.4958 3.58337 29.6522 3.58337 28.6668V7.16683C3.58337 6.18141 3.93424 5.33784 4.63598 4.6361C5.33771 3.93436 6.18129 3.5835 7.16671 3.5835H35.8334C36.8188 3.5835 37.6624 3.93436 38.3641 4.6361C39.0658 5.33784 39.4167 6.18141 39.4167 7.16683V35.072C39.4167 35.8783 39.0509 36.4382 38.3193 36.7517C37.5877 37.0653 36.9382 36.9384 36.3709 36.371L32.25 32.2502H7.16671ZM33.773 28.6668L35.8334 30.6825V7.16683H7.16671V28.6668H33.773Z" fill="#1C1B1F"/>
</g>
</svg>
