<svg width="43" height="43" viewBox="0 0 43 43" fill="none" xmlns="http://www.w3.org/2000/svg">
<mask id="mask0_4050_311" style="mask-type:alpha" maskUnits="userSpaceOnUse" x="0" y="0" width="43" height="43">
<rect width="43" height="43" fill="#D9D9D9"/>
</mask>
<g mask="url(#mask0_4050_311)">
<path d="M21.5 37.6246L18.9021 35.2955C15.8861 32.5781 13.3927 30.234 11.4219 28.2632C9.45102 26.2923 7.88331 24.5231 6.71873 22.9554C5.55415 21.3877 4.74043 19.9469 4.27758 18.633C3.81474 17.3191 3.58331 15.9753 3.58331 14.6017C3.58331 11.7948 4.52394 9.45068 6.40519 7.56943C8.28644 5.68818 10.6305 4.74756 13.4375 4.74756C14.9903 4.74756 16.4684 5.07603 17.8719 5.73298C19.2753 6.38992 20.4847 7.31561 21.5 8.51006C22.5153 7.31561 23.7246 6.38992 25.1281 5.73298C26.5316 5.07603 28.0097 4.74756 29.5625 4.74756C32.3694 4.74756 34.7135 5.68818 36.5948 7.56943C38.476 9.45068 39.4166 11.7948 39.4166 14.6017C39.4166 15.9753 39.1852 17.3191 38.7224 18.633C38.2595 19.9469 37.4458 21.3877 36.2812 22.9554C35.1166 24.5231 33.5489 26.2923 31.5781 28.2632C29.6073 30.234 27.1139 32.5781 24.0979 35.2955L21.5 37.6246ZM21.5 32.7871C24.3666 30.2191 26.7257 28.0168 28.5771 26.1804C30.4285 24.3439 31.8916 22.7463 32.9666 21.3877C34.0416 20.029 34.7882 18.8196 35.2062 17.7595C35.6243 16.6995 35.8333 15.6469 35.8333 14.6017C35.8333 12.8101 35.2361 11.317 34.0416 10.1226C32.8472 8.92811 31.3541 8.33089 29.5625 8.33089C28.159 8.33089 26.86 8.72655 25.6656 9.51787C24.4712 10.3092 23.65 11.317 23.2021 12.5413H19.7979C19.35 11.317 18.5288 10.3092 17.3344 9.51787C16.1399 8.72655 14.841 8.33089 13.4375 8.33089C11.6458 8.33089 10.1528 8.92811 8.95831 10.1226C7.76387 11.317 7.16665 12.8101 7.16665 14.6017C7.16665 15.6469 7.37567 16.6995 7.79373 17.7595C8.21179 18.8196 8.95831 20.029 10.0333 21.3877C11.1083 22.7463 12.5715 24.3439 14.4229 26.1804C16.2743 28.0168 18.6333 30.2191 21.5 32.7871Z" fill="#1C1B1F"/>
</g>
</svg>
