<svg width="1495" height="43" viewBox="0 0 1495 43" fill="none" xmlns="http://www.w3.org/2000/svg">
<mask id="mask0_4050_346" style="mask-type:alpha" maskUnits="userSpaceOnUse" x="0" y="0" width="43" height="43">
<rect width="43" height="43" fill="#D9D9D9"/>
</mask>
<g mask="url(#mask0_4050_346)">
<path d="M21.5 37.6246L18.9021 35.2955C15.8861 32.5781 13.3927 30.234 11.4219 28.2632C9.45104 26.2923 7.88333 24.5231 6.71874 22.9554C5.55416 21.3877 4.74045 19.9469 4.2776 18.633C3.81475 17.3191 3.58333 15.9753 3.58333 14.6017C3.58333 11.7948 4.52395 9.45068 6.4052 7.56943C8.28645 5.68818 10.6306 4.74756 13.4375 4.74756C14.9903 4.74756 16.4684 5.07603 17.8719 5.73298C19.2753 6.38992 20.4847 7.31561 21.5 8.51006C22.5153 7.31561 23.7246 6.38992 25.1281 5.73298C26.5316 5.07603 28.0097 4.74756 29.5625 4.74756C32.3694 4.74756 34.7135 5.68818 36.5948 7.56943C38.476 9.45068 39.4167 11.7948 39.4167 14.6017C39.4167 15.9753 39.1852 17.3191 38.7224 18.633C38.2595 19.9469 37.4458 21.3877 36.2812 22.9554C35.1167 24.5231 33.549 26.2923 31.5781 28.2632C29.6073 30.234 27.1139 32.5781 24.0979 35.2955L21.5 37.6246ZM21.5 32.7871C24.3667 30.2191 26.7257 28.0168 28.5771 26.1804C30.4285 24.3439 31.8917 22.7463 32.9667 21.3877C34.0417 20.029 34.7882 18.8196 35.2062 17.7595C35.6243 16.6995 35.8333 15.6469 35.8333 14.6017C35.8333 12.8101 35.2361 11.317 34.0417 10.1226C32.8472 8.92811 31.3542 8.33089 29.5625 8.33089C28.159 8.33089 26.8601 8.72655 25.6656 9.51787C24.4712 10.3092 23.65 11.317 23.2021 12.5413H19.7979C19.35 11.317 18.5288 10.3092 17.3344 9.51787C16.1399 8.72655 14.841 8.33089 13.4375 8.33089C11.6458 8.33089 10.1528 8.92811 8.95833 10.1226C7.76388 11.317 7.16666 12.8101 7.16666 14.6017C7.16666 15.6469 7.37569 16.6995 7.79375 17.7595C8.2118 18.8196 8.95833 20.029 10.0333 21.3877C11.1083 22.7463 12.5715 24.3439 14.4229 26.1804C16.2743 28.0168 18.6333 30.2191 21.5 32.7871Z" fill="#1C1B1F"/>
</g>
<mask id="mask1_4050_346" style="mask-type:alpha" maskUnits="userSpaceOnUse" x="522" y="0" width="43" height="43">
<rect x="522" width="43" height="43" fill="#D9D9D9"/>
</mask>
<g mask="url(#mask1_4050_346)">
<path d="M543.5 37.6246L540.902 35.2955C537.886 32.5781 535.393 30.234 533.422 28.2632C531.451 26.2923 529.883 24.5231 528.719 22.9554C527.554 21.3877 526.74 19.9469 526.278 18.633C525.815 17.3191 525.583 15.9753 525.583 14.6017C525.583 11.7948 526.524 9.45068 528.405 7.56943C530.286 5.68818 532.631 4.74756 535.437 4.74756C536.99 4.74756 538.468 5.07603 539.872 5.73298C541.275 6.38992 542.485 7.31561 543.5 8.51006C544.515 7.31561 545.725 6.38992 547.128 5.73298C548.532 5.07603 550.01 4.74756 551.562 4.74756C554.369 4.74756 556.714 5.68818 558.595 7.56943C560.476 9.45068 561.417 11.7948 561.417 14.6017C561.417 15.9753 561.185 17.3191 560.722 18.633C560.26 19.9469 559.446 21.3877 558.281 22.9554C557.117 24.5231 555.549 26.2923 553.578 28.2632C551.607 30.234 549.114 32.5781 546.098 35.2955L543.5 37.6246ZM543.5 32.7871C546.367 30.2191 548.726 28.0168 550.577 26.1804C552.428 24.3439 553.892 22.7463 554.967 21.3877C556.042 20.029 556.788 18.8196 557.206 17.7595C557.624 16.6995 557.833 15.6469 557.833 14.6017C557.833 12.8101 557.236 11.317 556.042 10.1226C554.847 8.92811 553.354 8.33089 551.562 8.33089C550.159 8.33089 548.86 8.72655 547.666 9.51787C546.471 10.3092 545.65 11.317 545.202 12.5413H541.798C541.35 11.317 540.529 10.3092 539.334 9.51787C538.14 8.72655 536.841 8.33089 535.437 8.33089C533.646 8.33089 532.153 8.92811 530.958 10.1226C529.764 11.317 529.167 12.8101 529.167 14.6017C529.167 15.6469 529.376 16.6995 529.794 17.7595C530.212 18.8196 530.958 20.029 532.033 21.3877C533.108 22.7463 534.572 24.3439 536.423 26.1804C538.274 28.0168 540.633 30.2191 543.5 32.7871Z" fill="#1C1B1F"/>
</g>
<mask id="mask2_4050_346" style="mask-type:alpha" maskUnits="userSpaceOnUse" x="1044" y="0" width="43" height="43">
<rect x="1044" width="43" height="43" fill="#D9D9D9"/>
</mask>
<g mask="url(#mask2_4050_346)">
<path d="M1065.5 37.6246L1062.9 35.2955C1059.89 32.5781 1057.39 30.234 1055.42 28.2632C1053.45 26.2923 1051.88 24.5231 1050.72 22.9554C1049.55 21.3877 1048.74 19.9469 1048.28 18.633C1047.81 17.3191 1047.58 15.9753 1047.58 14.6017C1047.58 11.7948 1048.52 9.45068 1050.41 7.56943C1052.29 5.68818 1054.63 4.74756 1057.44 4.74756C1058.99 4.74756 1060.47 5.07603 1061.87 5.73298C1063.28 6.38992 1064.48 7.31561 1065.5 8.51006C1066.52 7.31561 1067.72 6.38992 1069.13 5.73298C1070.53 5.07603 1072.01 4.74756 1073.56 4.74756C1076.37 4.74756 1078.71 5.68818 1080.59 7.56943C1082.48 9.45068 1083.42 11.7948 1083.42 14.6017C1083.42 15.9753 1083.19 17.3191 1082.72 18.633C1082.26 19.9469 1081.45 21.3877 1080.28 22.9554C1079.12 24.5231 1077.55 26.2923 1075.58 28.2632C1073.61 30.234 1071.11 32.5781 1068.1 35.2955L1065.5 37.6246ZM1065.5 32.7871C1068.37 30.2191 1070.73 28.0168 1072.58 26.1804C1074.43 24.3439 1075.89 22.7463 1076.97 21.3877C1078.04 20.029 1078.79 18.8196 1079.21 17.7595C1079.62 16.6995 1079.83 15.6469 1079.83 14.6017C1079.83 12.8101 1079.24 11.317 1078.04 10.1226C1076.85 8.92811 1075.35 8.33089 1073.56 8.33089C1072.16 8.33089 1070.86 8.72655 1069.67 9.51787C1068.47 10.3092 1067.65 11.317 1067.2 12.5413H1063.8C1063.35 11.317 1062.53 10.3092 1061.33 9.51787C1060.14 8.72655 1058.84 8.33089 1057.44 8.33089C1055.65 8.33089 1054.15 8.92811 1052.96 10.1226C1051.76 11.317 1051.17 12.8101 1051.17 14.6017C1051.17 15.6469 1051.38 16.6995 1051.79 17.7595C1052.21 18.8196 1052.96 20.029 1054.03 21.3877C1055.11 22.7463 1056.57 24.3439 1058.42 26.1804C1060.27 28.0168 1062.63 30.2191 1065.5 32.7871Z" fill="#1C1B1F"/>
</g>
<mask id="mask3_4050_346" style="mask-type:alpha" maskUnits="userSpaceOnUse" x="57" y="0" width="43" height="43">
<rect x="57" width="43" height="43" fill="#D9D9D9"/>
</mask>
<g mask="url(#mask3_4050_346)">
<path d="M64.1667 32.2502C63.1812 32.2502 62.3377 31.8993 61.6359 31.1976C60.9342 30.4958 60.5833 29.6522 60.5833 28.6668V7.16683C60.5833 6.18141 60.9342 5.33784 61.6359 4.6361C62.3377 3.93436 63.1812 3.5835 64.1667 3.5835H92.8333C93.8187 3.5835 94.6623 3.93436 95.3641 4.6361C96.0658 5.33784 96.4167 6.18141 96.4167 7.16683V35.072C96.4167 35.8783 96.0509 36.4382 95.3193 36.7517C94.5877 37.0653 93.9382 36.9384 93.3708 36.371L89.25 32.2502H64.1667ZM90.7729 28.6668L92.8333 30.6825V7.16683H64.1667V28.6668H90.7729Z" fill="#1C1B1F"/>
</g>
<mask id="mask4_4050_346" style="mask-type:alpha" maskUnits="userSpaceOnUse" x="579" y="0" width="43" height="43">
<rect x="579" width="43" height="43" fill="#D9D9D9"/>
</mask>
<g mask="url(#mask4_4050_346)">
<path d="M586.167 32.2502C585.181 32.2502 584.338 31.8993 583.636 31.1976C582.934 30.4958 582.583 29.6522 582.583 28.6668V7.16683C582.583 6.18141 582.934 5.33784 583.636 4.6361C584.338 3.93436 585.181 3.5835 586.167 3.5835H614.833C615.819 3.5835 616.662 3.93436 617.364 4.6361C618.066 5.33784 618.417 6.18141 618.417 7.16683V35.072C618.417 35.8783 618.051 36.4382 617.319 36.7517C616.588 37.0653 615.938 36.9384 615.371 36.371L611.25 32.2502H586.167ZM612.773 28.6668L614.833 30.6825V7.16683H586.167V28.6668H612.773Z" fill="#1C1B1F"/>
</g>
<mask id="mask5_4050_346" style="mask-type:alpha" maskUnits="userSpaceOnUse" x="1101" y="0" width="43" height="43">
<rect x="1101" width="43" height="43" fill="#D9D9D9"/>
</mask>
<g mask="url(#mask5_4050_346)">
<path d="M1108.17 32.2502C1107.18 32.2502 1106.34 31.8993 1105.64 31.1976C1104.93 30.4958 1104.58 29.6522 1104.58 28.6668V7.16683C1104.58 6.18141 1104.93 5.33784 1105.64 4.6361C1106.34 3.93436 1107.18 3.5835 1108.17 3.5835H1136.83C1137.82 3.5835 1138.66 3.93436 1139.36 4.6361C1140.07 5.33784 1140.42 6.18141 1140.42 7.16683V35.072C1140.42 35.8783 1140.05 36.4382 1139.32 36.7517C1138.59 37.0653 1137.94 36.9384 1137.37 36.371L1133.25 32.2502H1108.17ZM1134.77 28.6668L1136.83 30.6825V7.16683H1108.17V28.6668H1134.77Z" fill="#1C1B1F"/>
</g>
<mask id="mask6_4050_346" style="mask-type:alpha" maskUnits="userSpaceOnUse" x="114" y="0" width="43" height="43">
<rect x="114" width="43" height="43" fill="#D9D9D9"/>
</mask>
<g mask="url(#mask6_4050_346)">
<path d="M149.475 23.1577L121.883 34.8036C121.286 35.0424 120.719 34.9902 120.181 34.6468C119.644 34.3034 119.375 33.8032 119.375 33.1463V9.85459C119.375 9.19765 119.644 8.69748 120.181 8.35407C120.719 8.01067 121.286 7.95841 121.883 8.1973L149.475 19.8431C150.222 20.1716 150.595 20.724 150.595 21.5004C150.595 22.2768 150.222 22.8292 149.475 23.1577ZM122.958 30.4588L144.19 21.5004L122.958 12.5421V18.8129L133.708 21.5004L122.958 24.1879V30.4588Z" fill="#1C1B1F"/>
</g>
<mask id="mask7_4050_346" style="mask-type:alpha" maskUnits="userSpaceOnUse" x="636" y="0" width="43" height="43">
<rect x="636" width="43" height="43" fill="#D9D9D9"/>
</mask>
<g mask="url(#mask7_4050_346)">
<path d="M671.475 23.1577L643.883 34.8036C643.286 35.0424 642.719 34.9902 642.181 34.6468C641.644 34.3034 641.375 33.8032 641.375 33.1463V9.85459C641.375 9.19765 641.644 8.69748 642.181 8.35407C642.719 8.01067 643.286 7.95841 643.883 8.1973L671.475 19.8431C672.222 20.1716 672.595 20.724 672.595 21.5004C672.595 22.2768 672.222 22.8292 671.475 23.1577ZM644.958 30.4588L666.19 21.5004L644.958 12.5421V18.8129L655.708 21.5004L644.958 24.1879V30.4588Z" fill="#1C1B1F"/>
</g>
<mask id="mask8_4050_346" style="mask-type:alpha" maskUnits="userSpaceOnUse" x="1158" y="0" width="43" height="43">
<rect x="1158" width="43" height="43" fill="#D9D9D9"/>
</mask>
<g mask="url(#mask8_4050_346)">
<path d="M1193.48 23.1577L1165.88 34.8036C1165.29 35.0424 1164.72 34.9902 1164.18 34.6468C1163.64 34.3034 1163.38 33.8032 1163.38 33.1463V9.85459C1163.38 9.19765 1163.64 8.69748 1164.18 8.35407C1164.72 8.01067 1165.29 7.95841 1165.88 8.1973L1193.48 19.8431C1194.22 20.1716 1194.59 20.724 1194.59 21.5004C1194.59 22.2768 1194.22 22.8292 1193.48 23.1577ZM1166.96 30.4588L1188.19 21.5004L1166.96 12.5421V18.8129L1177.71 21.5004L1166.96 24.1879V30.4588Z" fill="#1C1B1F"/>
</g>
<mask id="mask9_4050_346" style="mask-type:alpha" maskUnits="userSpaceOnUse" x="408" y="0" width="43" height="43">
<rect x="408" width="43" height="43" fill="#D9D9D9"/>
</mask>
<g mask="url(#mask9_4050_346)">
<path d="M416.958 37.625V8.95833C416.958 7.97292 417.309 7.12934 418.011 6.4276C418.713 5.72587 419.556 5.375 420.542 5.375H438.458C439.444 5.375 440.287 5.72587 440.989 6.4276C441.691 7.12934 442.042 7.97292 442.042 8.95833V37.625L429.5 32.25L416.958 37.625ZM420.542 32.1604L429.5 28.3083L438.458 32.1604V8.95833H420.542V32.1604Z" fill="#1C1B1F"/>
</g>
<mask id="mask10_4050_346" style="mask-type:alpha" maskUnits="userSpaceOnUse" x="930" y="0" width="43" height="43">
<rect x="930" width="43" height="43" fill="#D9D9D9"/>
</mask>
<g mask="url(#mask10_4050_346)">
<path d="M938.958 37.625V8.95833C938.958 7.97292 939.309 7.12934 940.011 6.4276C940.713 5.72587 941.556 5.375 942.542 5.375H960.458C961.444 5.375 962.287 5.72587 962.989 6.4276C963.691 7.12934 964.042 7.97292 964.042 8.95833V37.625L951.5 32.25L938.958 37.625ZM942.542 32.1604L951.5 28.3083L960.458 32.1604V8.95833H942.542V32.1604Z" fill="#1C1B1F"/>
</g>
<mask id="mask11_4050_346" style="mask-type:alpha" maskUnits="userSpaceOnUse" x="1452" y="0" width="43" height="43">
<rect x="1452" width="43" height="43" fill="#D9D9D9"/>
</mask>
<g mask="url(#mask11_4050_346)">
<path d="M1460.96 37.625V8.95833C1460.96 7.97292 1461.31 7.12934 1462.01 6.4276C1462.71 5.72587 1463.56 5.375 1464.54 5.375H1482.46C1483.44 5.375 1484.29 5.72587 1484.99 6.4276C1485.69 7.12934 1486.04 7.97292 1486.04 8.95833V37.625L1473.5 32.25L1460.96 37.625ZM1464.54 32.1604L1473.5 28.3083L1482.46 32.1604V8.95833H1464.54V32.1604Z" fill="#1C1B1F"/>
</g>
</svg>
