<svg width="75" height="70" viewBox="0 0 75 70" fill="none" xmlns="http://www.w3.org/2000/svg">
<mask id="mask0_4061_91" style="mask-type:alpha" maskUnits="userSpaceOnUse" x="5" y="0" width="70" height="70">
<rect x="5" width="70" height="70" fill="#D9D9D9"/>
</mask>
<g mask="url(#mask0_4061_91)">
<path d="M30.0833 65.625L24.5416 56.2917L14.0416 53.9583L15.0625 43.1667L7.91663 35L15.0625 26.8333L14.0416 16.0417L24.5416 13.7083L30.0833 4.375L40 8.60417L49.9166 4.375L55.4583 13.7083L65.9583 16.0417L64.9375 26.8333L72.0833 35L64.9375 43.1667L65.9583 53.9583L55.4583 56.2917L49.9166 65.625L40 61.3958L30.0833 65.625ZM32.5625 58.1875L40 54.9792L47.5833 58.1875L51.6666 51.1875L59.6875 49.2917L58.9583 41.125L64.3541 35L58.9583 28.7292L59.6875 20.5625L51.6666 18.8125L47.4375 11.8125L40 15.0208L32.4166 11.8125L28.3333 18.8125L20.3125 20.5625L21.0416 28.7292L15.6458 35L21.0416 41.125L20.3125 49.4375L28.3333 51.1875L32.5625 58.1875ZM36.9375 45.3542L53.4166 28.875L49.3333 24.6458L36.9375 37.0417L30.6666 30.9167L26.5833 35L36.9375 45.3542Z" fill="#0085DC"/>
</g>
<mask id="mask1_4061_91" style="mask-type:alpha" maskUnits="userSpaceOnUse" x="0" y="0" width="70" height="70">
<rect width="70" height="70" fill="#D9D9D9"/>
</mask>
<g mask="url(#mask1_4061_91)">
<path d="M25.0833 65.625L19.5416 56.2917L9.04163 53.9583L10.0625 43.1667L2.91663 35L10.0625 26.8333L9.04163 16.0417L19.5416 13.7083L25.0833 4.375L35 8.60417L44.9166 4.375L50.4583 13.7083L60.9583 16.0417L59.9375 26.8333L67.0833 35L59.9375 43.1667L60.9583 53.9583L50.4583 56.2917L44.9166 65.625L35 61.3958L25.0833 65.625ZM27.5625 58.1875L35 54.9792L42.5833 58.1875L46.6666 51.1875L54.6875 49.2917L53.9583 41.125L59.3541 35L53.9583 28.7292L54.6875 20.5625L46.6666 18.8125L42.4375 11.8125L35 15.0208L27.4166 11.8125L23.3333 18.8125L15.3125 20.5625L16.0416 28.7292L10.6458 35L16.0416 41.125L15.3125 49.4375L23.3333 51.1875L27.5625 58.1875ZM31.9375 45.3542L48.4166 28.875L44.3333 24.6458L31.9375 37.0417L25.6666 30.9167L21.5833 35L31.9375 45.3542Z" fill="#FFD54F"/>
</g>
</svg>
