<svg width="43" height="43" viewBox="0 0 43 43" fill="none" xmlns="http://www.w3.org/2000/svg">
<mask id="mask0_4050_329" style="mask-type:alpha" maskUnits="userSpaceOnUse" x="0" y="0" width="43" height="43">
<rect width="43" height="43" fill="#D9D9D9"/>
</mask>
<g mask="url(#mask0_4050_329)">
<path d="M35.475 23.1577L7.88333 34.8036C7.28611 35.0424 6.71875 34.9902 6.18125 34.6468C5.64375 34.3034 5.375 33.8032 5.375 33.1463V9.85459C5.375 9.19765 5.64375 8.69748 6.18125 8.35407C6.71875 8.01067 7.28611 7.95841 7.88333 8.1973L35.475 19.8431C36.2215 20.1716 36.5948 20.724 36.5948 21.5004C36.5948 22.2768 36.2215 22.8292 35.475 23.1577ZM8.95833 30.4588L30.1896 21.5004L8.95833 12.5421V18.8129L19.7083 21.5004L8.95833 24.1879V30.4588Z" fill="#1C1B1F"/>
</g>
</svg>
