<svg width="79" height="73" viewBox="0 0 79 73" fill="none" xmlns="http://www.w3.org/2000/svg">
<mask id="mask0_4061_93" style="mask-type:alpha" maskUnits="userSpaceOnUse" x="9" y="3" width="70" height="70">
<rect x="9" y="3" width="70" height="70" fill="#D9D9D9"/>
</mask>
<g mask="url(#mask0_4061_93)">
<path d="M11.9167 61.3334V53.1667C11.9167 51.514 12.342 49.9949 13.1927 48.6095C14.0434 47.224 15.1736 46.1667 16.5833 45.4376C19.5972 43.9306 22.6597 42.8004 25.7708 42.047C28.8819 41.2935 32.0417 40.9167 35.25 40.9167C38.4583 40.9167 41.6181 41.2935 44.7292 42.047C47.8403 42.8004 50.9028 43.9306 53.9167 45.4376C55.3264 46.1667 56.4566 47.224 57.3073 48.6095C58.158 49.9949 58.5833 51.514 58.5833 53.1667V61.3334H11.9167ZM64.4167 61.3334V52.5834C64.4167 50.4445 63.8212 48.3907 62.6302 46.422C61.4392 44.4532 59.75 42.764 57.5625 41.3542C60.0417 41.6459 62.375 42.1442 64.5625 42.849C66.75 43.5539 68.7917 44.4167 70.6875 45.4376C72.4375 46.4098 73.7743 47.4914 74.6979 48.6824C75.6215 49.8733 76.0833 51.1737 76.0833 52.5834V61.3334H64.4167ZM35.25 38.0001C32.0417 38.0001 29.2951 36.8577 27.0104 34.573C24.7257 32.2883 23.5833 29.5417 23.5833 26.3334C23.5833 23.1251 24.7257 20.3786 27.0104 18.0938C29.2951 15.8091 32.0417 14.6667 35.25 14.6667C38.4583 14.6667 41.2049 15.8091 43.4896 18.0938C45.7743 20.3786 46.9167 23.1251 46.9167 26.3334C46.9167 29.5417 45.7743 32.2883 43.4896 34.573C41.2049 36.8577 38.4583 38.0001 35.25 38.0001ZM64.4167 26.3334C64.4167 29.5417 63.2743 32.2883 60.9896 34.573C58.7049 36.8577 55.9583 38.0001 52.75 38.0001C52.2153 38.0001 51.5347 37.9393 50.7083 37.8178C49.8819 37.6963 49.2014 37.5626 48.6667 37.4167C49.9792 35.8612 50.9879 34.1355 51.6927 32.2397C52.3976 30.3438 52.75 28.3751 52.75 26.3334C52.75 24.2917 52.3976 22.323 51.6927 20.4272C50.9879 18.5313 49.9792 16.8056 48.6667 15.2501C49.3472 15.007 50.0278 14.849 50.7083 14.7761C51.3889 14.7032 52.0694 14.6667 52.75 14.6667C55.9583 14.6667 58.7049 15.8091 60.9896 18.0938C63.2743 20.3786 64.4167 23.1251 64.4167 26.3334ZM17.75 55.5001H52.75V53.1667C52.75 52.632 52.6163 52.1459 52.349 51.7084C52.0816 51.2709 51.7292 50.9306 51.2917 50.6876C48.6667 49.3751 46.0174 48.3907 43.3438 47.7345C40.6701 47.0782 37.9722 46.7501 35.25 46.7501C32.5278 46.7501 29.8299 47.0782 27.1563 47.7345C24.4826 48.3907 21.8333 49.3751 19.2083 50.6876C18.7708 50.9306 18.4184 51.2709 18.151 51.7084C17.8837 52.1459 17.75 52.632 17.75 53.1667V55.5001ZM35.25 32.1667C36.8542 32.1667 38.2274 31.5956 39.3698 30.4532C40.5122 29.3108 41.0833 27.9376 41.0833 26.3334C41.0833 24.7292 40.5122 23.356 39.3698 22.2136C38.2274 21.0713 36.8542 20.5001 35.25 20.5001C33.6458 20.5001 32.2726 21.0713 31.1302 22.2136C29.9879 23.356 29.4167 24.7292 29.4167 26.3334C29.4167 27.9376 29.9879 29.3108 31.1302 30.4532C32.2726 31.5956 33.6458 32.1667 35.25 32.1667Z" fill="#0085DC"/>
</g>
<mask id="mask1_4061_93" style="mask-type:alpha" maskUnits="userSpaceOnUse" x="5" y="3" width="70" height="70">
<rect x="5" y="3" width="70" height="70" fill="#D9D9D9"/>
</mask>
<g mask="url(#mask1_4061_93)">
<path d="M7.91667 61.3334V53.1667C7.91667 51.514 8.34202 49.9949 9.19271 48.6095C10.0434 47.224 11.1736 46.1667 12.5833 45.4376C15.5972 43.9306 18.6597 42.8004 21.7708 42.047C24.8819 41.2935 28.0417 40.9167 31.25 40.9167C34.4583 40.9167 37.6181 41.2935 40.7292 42.047C43.8403 42.8004 46.9028 43.9306 49.9167 45.4376C51.3264 46.1667 52.4566 47.224 53.3073 48.6095C54.158 49.9949 54.5833 51.514 54.5833 53.1667V61.3334H7.91667ZM60.4167 61.3334V52.5834C60.4167 50.4445 59.8212 48.3907 58.6302 46.422C57.4392 44.4532 55.75 42.764 53.5625 41.3542C56.0417 41.6459 58.375 42.1442 60.5625 42.849C62.75 43.5539 64.7917 44.4167 66.6875 45.4376C68.4375 46.4098 69.7743 47.4914 70.6979 48.6824C71.6215 49.8733 72.0833 51.1737 72.0833 52.5834V61.3334H60.4167ZM31.25 38.0001C28.0417 38.0001 25.2951 36.8577 23.0104 34.573C20.7257 32.2883 19.5833 29.5417 19.5833 26.3334C19.5833 23.1251 20.7257 20.3786 23.0104 18.0938C25.2951 15.8091 28.0417 14.6667 31.25 14.6667C34.4583 14.6667 37.2049 15.8091 39.4896 18.0938C41.7743 20.3786 42.9167 23.1251 42.9167 26.3334C42.9167 29.5417 41.7743 32.2883 39.4896 34.573C37.2049 36.8577 34.4583 38.0001 31.25 38.0001ZM60.4167 26.3334C60.4167 29.5417 59.2743 32.2883 56.9896 34.573C54.7049 36.8577 51.9583 38.0001 48.75 38.0001C48.2153 38.0001 47.5347 37.9393 46.7083 37.8178C45.8819 37.6963 45.2014 37.5626 44.6667 37.4167C45.9792 35.8612 46.9879 34.1355 47.6927 32.2397C48.3976 30.3438 48.75 28.3751 48.75 26.3334C48.75 24.2917 48.3976 22.323 47.6927 20.4272C46.9879 18.5313 45.9792 16.8056 44.6667 15.2501C45.3472 15.007 46.0278 14.849 46.7083 14.7761C47.3889 14.7032 48.0694 14.6667 48.75 14.6667C51.9583 14.6667 54.7049 15.8091 56.9896 18.0938C59.2743 20.3786 60.4167 23.1251 60.4167 26.3334ZM13.75 55.5001H48.75V53.1667C48.75 52.632 48.6163 52.1459 48.349 51.7084C48.0816 51.2709 47.7292 50.9306 47.2917 50.6876C44.6667 49.3751 42.0174 48.3907 39.3438 47.7345C36.6701 47.0782 33.9722 46.7501 31.25 46.7501C28.5278 46.7501 25.8299 47.0782 23.1563 47.7345C20.4826 48.3907 17.8333 49.3751 15.2083 50.6876C14.7708 50.9306 14.4184 51.2709 14.151 51.7084C13.8837 52.1459 13.75 52.632 13.75 53.1667V55.5001ZM31.25 32.1667C32.8542 32.1667 34.2274 31.5956 35.3698 30.4532C36.5122 29.3108 37.0833 27.9376 37.0833 26.3334C37.0833 24.7292 36.5122 23.356 35.3698 22.2136C34.2274 21.0713 32.8542 20.5001 31.25 20.5001C29.6458 20.5001 28.2726 21.0713 27.1302 22.2136C25.9879 23.356 25.4167 24.7292 25.4167 26.3334C25.4167 27.9376 25.9879 29.3108 27.1302 30.4532C28.2726 31.5956 29.6458 32.1667 31.25 32.1667Z" fill="#FFD54F"/>
</g>
</svg>
